{
  "accessors": [
    {
      "bufferView": 2,
      "componentType": 5126,
      "count": 6392,
      "max": [
        1.7173670530319214,
        0.9986696243286133,
        1.5833244323730469
      ],
      "min": [
        -1.7179360389709473,
        -1.5026050806045532,
        -1.3430176973342896
      ],
      "type": "VEC3"
    },
    {
      "bufferView": 2,
      "byteOffset": 76704,
      "componentType": 5126,
      "count": 6392,
      "max": [
        0.9998394250869751,
        0.9998874664306641,
        0.999649167060852
      ],
      "min": [
        -0.9999197721481323,
        -0.9998468160629272,
        -0.999934196472168
      ],
      "type": "VEC3"
    },
    {
      "bufferView": 1,
      "componentType": 5126,
      "count": 6392,
      "max": [
        1.354237675666809,
        0.9973259568214417
      ],
      "min": [
        0.0,
        0.0
      ],
      "type": "VEC2"
    },
    {
      "bufferView": 0,
      "componentType": 5125,
      "count": 31320,
      "type": "SCALAR"
    },
    {
      "bufferView": 2,
      "byteOffset": 153408,
      "componentType": 5126,
      "count": 158,
      "max": [
        0.11999998986721039,
        0.12000001966953278,
        0.6439095735549927
      ],
      "min": [
        -1.097543478012085,
        -0.14137399196624756,
        -0.11999998986721039
      ],
      "type": "VEC3"
    },
    {
      "bufferView": 2,
      "byteOffset": 155304,
      "componentType": 5126,
      "count": 158,
      "max": [
        0.9807879328727722,
        0.9916638135910034,
        0.7274243235588074
      ],
      "min": [
        -0.9856356978416443,
        -0.9933305382728577,
        -1.0
      ],
      "type": "VEC3"
    },
    {
      "bufferView": 1,
      "byteOffset": 51136,
      "componentType": 5126,
      "count": 158,
      "max": [
        1.0,
        1.0
      ],
      "min": [
        0.5,
        0.0
      ],
      "type": "VEC2"
    },
    {
      "bufferView": 0,
      "byteOffset": 125280,
      "componentType": 5125,
      "count": 672,
      "type": "SCALAR"
    },
    {
      "bufferView": 2,
      "byteOffset": 157200,
      "componentType": 5126,
      "count": 833,
      "max": [
        0.22790032625198364,
        0.06507046520709991,
        0.2488315999507904
      ],
      "min": [
        -0.20093780755996704,
        -0.06417582929134369,
        -0.26294320821762085
      ],
      "type": "VEC3"
    },
    {
      "bufferView": 2,
      "byteOffset": 167196,
      "componentType": 5126,
      "count": 833,
      "max": [
        0.9999920129776001,
        0.9999961853027344,
        0.9962367415428162
      ],
      "min": [
        -0.9999393224716187,
        -0.9999916553497314,
        -0.9959234595298767
      ],
      "type": "VEC3"
    },
    {
      "bufferView": 1,
      "byteOffset": 52400,
      "componentType": 5126,
      "count": 833,
      "max": [
        1.0,
        1.0
      ],
      "min": [
        8.881784197001252e-16,
        0.0
      ],
      "type": "VEC2"
    },
    {
      "bufferView": 0,
      "byteOffset": 127968,
      "componentType": 5125,
      "count": 4608,
      "type": "SCALAR"
    },
    {
      "bufferView": 2,
      "byteOffset": 177192,
      "componentType": 5126,
      "count": 48,
      "max": [
        0.10605895519256592,
        0.005584829021245241,
        0.12564551830291748
      ],
      "min": [
        -0.09729472547769547,
        -0.0018140323227271438,
        -0.1385553628206253
      ],
      "type": "VEC3"
    },
    {
      "bufferView": 2,
      "byteOffset": 177768,
      "componentType": 5126,
      "count": 48,
      "max": [
        0.007506783120334148,
        -0.999832808971405,
        -0.01667616330087185
      ],
      "min": [
        0.007506783120334148,
        -0.999832808971405,
        -0.01667616330087185
      ],
      "type": "VEC3"
    },
    {
      "bufferView": 1,
      "byteOffset": 59064,
      "componentType": 5126,
      "count": 48,
      "max": [
        0.0,
        0.0
      ],
      "min": [
        0.0,
        0.0
      ],
      "type": "VEC2"
    },
    {
      "bufferView": 0,
      "byteOffset": 146400,
      "componentType": 5125,
      "count": 138,
      "type": "SCALAR"
    }
  ],
  "asset": {
    "extras": {
      "author": "Felix Yadomi (https://sketchfab.com/felixyadomi)",
      "license": "CC-BY-4.0 (http://creativecommons.org/licenses/by/4.0/)",
      "source": "https://sketchfab.com/3d-models/cute-squid-b6d6fcb905134cf9a33b068e2ebe1b0e",
      "title": "Cute Squid"
    },
    "generator": "Sketchfab-11.41.0",
    "version": "2.0"
  },
  "bufferViews": [
    {
      "buffer": 0,
      "byteLength": 146952,
      "name": "floatBufferViews",
      "target": 34963
    },
    {
      "buffer": 0,
      "byteLength": 59448,
      "byteOffset": 146952,
      "byteStride": 8,
      "name": "floatBufferViews",
      "target": 34962
    },
    {
      "buffer": 0,
      "byteLength": 178344,
      "byteOffset": 206400,
      "byteStride": 12,
      "name": "floatBufferViews",
      "target": 34962
    }
  ],
  "buffers": [
    {
      "byteLength": 384744,
      "uri": "scene.bin"
    }
  ],
  "extensionsUsed": [
    "KHR_materials_clearcoat"
  ],
  "materials": [
    {
      "doubleSided": true,
      "extensions": {
        "KHR_materials_clearcoat": {
          "clearcoatFactor": 0.4820437286053907,
          "clearcoatRoughnessFactor": 0.1841152436021378
        }
      },
      "name": "body",
      "pbrMetallicRoughness": {
        "baseColorFactor": [
          0.9504074916579607,
          0.3356351241843809,
          0.9152781832488246,
          1.0
        ],
        "metallicFactor": 0.27531784105211315,
        "roughnessFactor": 0.4936355787412825
      }
    },
    {
      "doubleSided": true,
      "name": "material",
      "pbrMetallicRoughness": {
        "baseColorFactor": [
          0.0,
          0.0,
          0.0,
          1.0
        ],
        "metallicFactor": 0.5002842480953857,
        "roughnessFactor": 0.0772727
      }
    },
    {
      "doubleSided": true,
      "name": "lips",
      "pbrMetallicRoughness": {
        "baseColorFactor": [
          0.9230554043892673,
          0.4467292081272397,
          1.0,
          1.0
        ],
        "metallicFactor": 0.3239592263587667,
        "roughnessFactor": 0.5
      }
    },
    {
      "doubleSided": true,
      "name": "mouth",
      "pbrMetallicRoughness": {
        "baseColorFactor": [
          0.3564501517003204,
          0.01566919221859439,
          0.027559255372593034,
          1.0
        ],
        "metallicFactor": 0.0,
        "roughnessFactor": 0.5
      }
    }
  ],
  "meshes": [
    {
      "name": "Object_0",
      "primitives": [
        {
          "attributes": {
            "NORMAL": 1,
            "POSITION": 0,
            "TEXCOORD_0": 2
          },
          "indices": 3,
          "material": 0,
          "mode": 4
        }
      ]
    },
    {
      "name": "Object_1",
      "primitives": [
        {
          "attributes": {
            "NORMAL": 5,
            "POSITION": 4,
            "TEXCOORD_0": 6
          },
          "indices": 7,
          "material": 1,
          "mode": 4
        }
      ]
    },
    {
      "name": "Object_2",
      "primitives": [
        {
          "attributes": {
            "NORMAL": 9,
            "POSITION": 8,
            "TEXCOORD_0": 10
          },
          "indices": 11,
          "material": 2,
          "mode": 4
        }
      ]
    },
    {
      "name": "Object_3",
      "primitives": [
        {
          "attributes": {
            "NORMAL": 13,
            "POSITION": 12,
            "TEXCOORD_0": 14
          },
          "indices": 15,
          "material": 3,
          "mode": 4
        }
      ]
    }
  ],
  "nodes": [
    {
      "children": [
        1
      ],
      "matrix": [
        1.0,
        0.0,
        0.0,
        0.0,
        0.0,
        2.220446049250313e-16,
        -1.0,
        0.0,
        0.0,
        1.0,
        2.220446049250313e-16,
        0.0,
        0.0,
        0.0,
        0.0,
        1.0
      ],
      "name": "Sketchfab_model"
    },
    {
      "children": [
        2
      ],
      "name": "root"
    },
    {
      "children": [
        3,
        5,
        7,
        9
      ],
      "matrix": [
        1.0,
        0.0,
        0.0,
        0.0,
        0.0,
        2.220446049250313e-16,
        1.0,
        0.0,
        0.0,
        -1.0,
        2.220446049250313e-16,
        0.0,
        0.0,
        0.0,
        0.0,
        1.0
      ],
      "name": "GLTF_SceneRootNode"
    },
    {
      "children": [
        4
      ],
      "name": "Sphere_2"
    },
    {
      "mesh": 0,
      "name": "Object_4"
    },
    {
      "children": [
        6
      ],
      "matrix": [
        0.8746778473023518,
        -0.14175351600760236,
        0.4635133268181253,
        0.0,
        0.019169939648928158,
        0.9656485199739862,
        0.25914368463442516,
        0.0,
        -0.48432548647823626,
        -0.21778171771646118,
        0.8473487750484374,
        0.0,
        0.5597875118255615,
        0.2654481530189514,
        -0.6736289262771606,
        1.0
      ],
      "name": "Sphere.002_3"
    },
    {
      "mesh": 1,
      "name": "Object_6"
    },
    {
      "children": [
        8
      ],
      "matrix": [
        -0.003679140091808808,
        -0.9988018782481025,
        0.04879827800493891,
        0.0,
        0.0031702233707898153,
        0.04878671317306271,
        0.9988041881678053,
        0.0,
        -0.9999882067364414,
        0.0038294419739403063,
        0.0029869319048283494,
        0.0,
        0.0,
        -0.13214446604251862,
        -0.8676924705505371,
        1.0
      ],
      "name": "Torus_4"
    },
    {
      "mesh": 2,
      "name": "Object_8"
    },
    {
      "children": [
        10
      ],
      "matrix": [
        -0.003679140091808808,
        -0.9988018782481025,
        0.04879827800493891,
        0.0,
        0.0031702233707898153,
        0.04878671317306271,
        0.9988041881678053,
        0.0,
        -0.9999882067364414,
        0.0038294419739403063,
        0.0029869319048283494,
        0.0,
        0.0,
        -0.13214446604251862,
        -0.8676924705505371,
        1.0
      ],
      "name": "Torus.001_5"
    },
    {
      "mesh": 3,
      "name": "Object_10"
    }
  ],
  "scene": 0,
  "scenes": [
    {
      "name": "Sketchfab_Scene",
      "nodes": [
        0
      ]
    }
  ]
}
