{
  "accessors": [
    {
      "bufferView": 2,
      "componentType": 5126,
      "count": 1606,
      "max": [
        0.6073890924453735,
        0.8314039707183838,
        0.3132644593715668
      ],
      "min": [
        -0.6073876619338989,
        -1.1823089122772217,
        -0.24697647988796234
      ],
      "type": "VEC3"
    },
    {
      "bufferView": 2,
      "byteOffset": 19272,
      "componentType": 5126,
      "count": 1606,
      "max": [
        0.9999653100967407,
        0.9999792575836182,
        0.9996383190155029
      ],
      "min": [
        -0.9999653100967407,
        -1.0,
        -0.9995419979095459
      ],
      "type": "VEC3"
    },
    {
      "bufferView": 1,
      "componentType": 5126,
      "count": 1606,
      "max": [
        0.9026868343353271,
        0.9667166471481323
      ],
      "min": [
        0.021463744342327118,
        0.6533299684524536
      ],
      "type": "VEC2"
    },
    {
      "bufferView": 0,
      "componentType": 5125,
      "count": 6720,
      "type": "SCALAR"
    },
    {
      "bufferView": 2,
      "byteOffset": 38544,
      "componentType": 5126,
      "count": 52,
      "max": [
        0.1375870406627655,
        0.04521369934082031,
        0.02641506865620613
      ],
      "min": [
        -0.1375870406627655,
        -0.0785897970199585,
        -0.0504293218255043
      ],
      "type": "VEC3"
    },
    {
      "bufferView": 2,
      "byteOffset": 39168,
      "componentType": 5126,
      "count": 52,
      "max": [
        0.8170355558395386,
        0.9986018538475037,
        0.9711673855781555
      ],
      "min": [
        -0.8170355558395386,
        -0.961581289768219,
        -0.9038223624229431
      ],
      "type": "VEC3"
    },
    {
      "bufferView": 1,
      "byteOffset": 12848,
      "componentType": 5126,
      "count": 52,
      "max": [
        0.40562179684638977,
        0.8457788825035095
      ],
      "min": [
        0.3984818756580353,
        0.842852771282196
      ],
      "type": "VEC2"
    },
    {
      "bufferView": 0,
      "byteOffset": 26880,
      "componentType": 5125,
      "count": 228,
      "type": "SCALAR"
    },
    {
      "bufferView": 2,
      "byteOffset": 39792,
      "componentType": 5126,
      "count": 1301,
      "max": [
        0.30258333683013916,
        0.6165745258331299,
        0.28594958782196045
      ],
      "min": [
        -0.30258333683013916,
        -0.056925058364868164,
        -0.24925608932971954
      ],
      "type": "VEC3"
    },
    {
      "bufferView": 2,
      "byteOffset": 55404,
      "componentType": 5126,
      "count": 1301,
      "max": [
        0.9985163807868958,
        0.9976564049720764,
        0.9999938011169434
      ],
      "min": [
        -0.9985225796699524,
        -0.997295618057251,
        -0.9999998807907104
      ],
      "type": "VEC3"
    },
    {
      "bufferView": 1,
      "byteOffset": 13264,
      "componentType": 5126,
      "count": 1301,
      "max": [
        0.9781750440597534,
        0.9662178754806519
      ],
      "min": [
        0.09145622700452805,
        0.14325964450836182
      ],
      "type": "VEC2"
    },
    {
      "bufferView": 0,
      "byteOffset": 27792,
      "componentType": 5125,
      "count": 4980,
      "type": "SCALAR"
    }
  ],
  "asset": {
    "extras": {
      "author": "businessyuen (https://sketchfab.com/businessyuen)",
      "license": "CC-BY-4.0 (http://creativecommons.org/licenses/by/4.0/)",
      "source": "https://sketchfab.com/3d-models/squid-game-doll-ccfed977f35446a7914a3abc5e393182",
      "title": "Squid Game Doll"
    },
    "generator": "Sketchfab-11.77.0",
    "version": "2.0"
  },
  "bufferViews": [
    {
      "buffer": 0,
      "byteLength": 47712,
      "name": "floatBufferViews",
      "target": 34963
    },
    {
      "buffer": 0,
      "byteLength": 23672,
      "byteOffset": 47712,
      "byteStride": 8,
      "name": "floatBufferViews",
      "target": 34962
    },
    {
      "buffer": 0,
      "byteLength": 71016,
      "byteOffset": 71384,
      "byteStride": 12,
      "name": "floatBufferViews",
      "target": 34962
    }
  ],
  "buffers": [
    {
      "byteLength": 142400,
      "uri": "scene.bin"
    }
  ],
  "images": [
    {
      "uri": "textures/Material.001_baseColor.png"
    }
  ],
  "materials": [
    {
      "doubleSided": true,
      "name": "Material.001",
      "pbrMetallicRoughness": {
        "baseColorTexture": {
          "index": 0
        },
        "metallicFactor": 0.0,
        "roughnessFactor": 0.8211145618
      }
    }
  ],
  "meshes": [
    {
      "name": "Body_Material.001_0",
      "primitives": [
        {
          "attributes": {
            "NORMAL": 1,
            "POSITION": 0,
            "TEXCOORD_0": 2
          },
          "indices": 3,
          "material": 0,
          "mode": 4
        }
      ]
    },
    {
      "name": "BowTie_Material.001_0",
      "primitives": [
        {
          "attributes": {
            "NORMAL": 5,
            "POSITION": 4,
            "TEXCOORD_0": 6
          },
          "indices": 7,
          "material": 0,
          "mode": 4
        }
      ]
    },
    {
      "name": "DollHead_Material.001_0",
      "primitives": [
        {
          "attributes": {
            "NORMAL": 9,
            "POSITION": 8,
            "TEXCOORD_0": 10
          },
          "indices": 11,
          "material": 0,
          "mode": 4
        }
      ]
    }
  ],
  "nodes": [
    {
      "children": [
        1
      ],
      "matrix": [
        1.0,
        0.0,
        0.0,
        0.0,
        0.0,
        2.220446049250313e-16,
        -1.0,
        0.0,
        0.0,
        1.0,
        2.220446049250313e-16,
        0.0,
        0.0,
        0.0,
        0.0,
        1.0
      ],
      "name": "Sketchfab_model"
    },
    {
      "children": [
        2
      ],
      "matrix": [
        1.0,
        0.0,
        0.0,
        0.0,
        0.0,
        0.0,
        1.0,
        0.0,
        0.0,
        -1.0,
        0.0,
        0.0,
        0.0,
        0.0,
        0.0,
        1.0
      ],
      "name": "123WoodManUpdated.fbx"
    },
    {
      "children": [
        3,
        5,
        7
      ],
      "name": "RootNode"
    },
    {
      "children": [
        4
      ],
      "matrix": [
        1.0,
        0.0,
        0.0,
        0.0,
        0.0,
        1.0,
        0.0,
        0.0,
        0.0,
        0.0,
        1.0,
        0.0,
        -6.621853003707656e-07,
        1.1833655834197998,
        -0.030421482399106026,
        1.0
      ],
      "name": "Body"
    },
    {
      "mesh": 0,
      "name": "Body_Material.001_0"
    },
    {
      "children": [
        6
      ],
      "matrix": [
        1.0,
        0.0,
        0.0,
        0.0,
        0.0,
        1.0,
        0.0,
        0.0,
        0.0,
        0.0,
        1.0,
        0.0,
        1.4901161415892261e-09,
        1.9937889575958252,
        0.031734172254800797,
        1.0
      ],
      "name": "BowTie"
    },
    {
      "mesh": 1,
      "name": "BowTie_Material.001_0"
    },
    {
      "children": [
        8
      ],
      "matrix": [
        1.0,
        0.0,
        0.0,
        0.0,
        0.0,
        1.0,
        0.0,
        0.0,
        0.0,
        0.0,
        1.0,
        0.0,
        1.5239824957546944e-09,
        2.0339415073394775,
        -0.07813335210084915,
        1.0
      ],
      "name": "DollHead"
    },
    {
      "mesh": 2,
      "name": "DollHead_Material.001_0"
    }
  ],
  "samplers": [
    {
      "magFilter": 9729,
      "minFilter": 9987,
      "wrapS": 10497,
      "wrapT": 10497
    }
  ],
  "scene": 0,
  "scenes": [
    {
      "name": "Sketchfab_Scene",
      "nodes": [
        0
      ]
    }
  ],
  "textures": [
    {
      "sampler": 0,
      "source": 0
    }
  ]
}
