{
  "accessors": [
    {
      "bufferView": 2,
      "componentType": 5126,
      "count": 9764,
      "max": [
        123.31659698486328,
        284.80459594726562,
        62.869701385498047
      ],
      "min": [
        -111.86789703369141,
        -293.84878540039062,
        -90.201927185058594
      ],
      "type": "VEC3"
    },
    {
      "bufferView": 2,
      "byteOffset": 117168,
      "componentType": 5126,
      "count": 9764,
      "max": [
        1,
        1,
        1
      ],
      "min": [
        -1,
        -1,
        -1
      ],
      "type": "VEC3"
    },
    {
      "bufferView": 3,
      "componentType": 5126,
      "count": 9764,
      "max": [
        1,
        1,
        0.99999964237213135,
        1
      ],
      "min": [
        -0.99999982118606567,
        -1,
        -1,
        -1
      ],
      "type": "VEC4"
    },
    {
      "bufferView": 3,
      "byteOffset": 156224,
      "componentType": 5126,
      "count": 9764,
      "max": [
        1,
        1,
        1,
        1
      ],
      "min": [
        1,
        1,
        1,
        1
      ],
      "type": "VEC4"
    },
    {
      "bufferView": 1,
      "componentType": 5126,
      "count": 9764,
      "max": [
        0.99979990720748901,
        0.99979645013809204
      ],
      "min": [
        0.00019999999494757503,
        0.00019999999494757503
      ],
      "type": "VEC2"
    },
    {
      "bufferView": 1,
      "byteOffset": 78112,
      "componentType": 5126,
      "count": 9764,
      "max": [
        1,
        0.999969482421875
      ],
      "min": [
        -0.068061262369155884,
        0
      ],
      "type": "VEC2"
    },
    {
      "bufferView": 0,
      "componentType": 5125,
      "count": 33687,
      "max": [
        9763
      ],
      "min": [
        0
      ],
      "type": "SCALAR"
    },
    {
      "bufferView": 2,
      "byteOffset": 234336,
      "componentType": 5126,
      "count": 9092,
      "max": [
        198.92608642578125,
        284.80459594726562,
        62.869701385498047
      ],
      "min": [
        -111.86789703369141,
        -293.84878540039062,
        -90.201927185058594
      ],
      "type": "VEC3"
    },
    {
      "bufferView": 2,
      "byteOffset": 343440,
      "componentType": 5126,
      "count": 9092,
      "max": [
        1,
        1,
        1
      ],
      "min": [
        -1,
        -1,
        -1
      ],
      "type": "VEC3"
    },
    {
      "bufferView": 3,
      "byteOffset": 312448,
      "componentType": 5126,
      "count": 9092,
      "max": [
        1,
        1,
        0.99999964237213135,
        1
      ],
      "min": [
        -0.99999982118606567,
        -1,
        -1,
        -1
      ],
      "type": "VEC4"
    },
    {
      "bufferView": 3,
      "byteOffset": 457920,
      "componentType": 5126,
      "count": 9092,
      "max": [
        1,
        1,
        1,
        1
      ],
      "min": [
        1,
        1,
        1,
        1
      ],
      "type": "VEC4"
    },
    {
      "bufferView": 1,
      "byteOffset": 156224,
      "componentType": 5126,
      "count": 9092,
      "max": [
        0.99979990720748901,
        0.99979645013809204
      ],
      "min": [
        0.00019999999494757503,
        0.00019999999494757503
      ],
      "type": "VEC2"
    },
    {
      "bufferView": 1,
      "byteOffset": 228960,
      "componentType": 5126,
      "count": 9092,
      "max": [
        1,
        0.999969482421875
      ],
      "min": [
        -0.068061262369155884,
        0
      ],
      "type": "VEC2"
    },
    {
      "bufferView": 0,
      "byteOffset": 134748,
      "componentType": 5125,
      "count": 31047,
      "max": [
        9091
      ],
      "min": [
        0
      ],
      "type": "SCALAR"
    }
  ],
  "asset": {
    "extras": {
      "author": "Renafox (https://sketchfab.com/kryik1023)",
      "license": "CC-BY-4.0 (http://creativecommons.org/licenses/by/4.0/)",
      "source": "https://sketchfab.com/3d-models/free-burned-police-cars-ad16f7085cb047b494997cf9efed5059",
      "title": "Free Burned Police Cars"
    },
    "generator": "Sketchfab-8.59.0",
    "version": "2.0"
  },
  "bufferViews": [
    {
      "buffer": 0,
      "byteLength": 258936,
      "byteOffset": 0,
      "name": "floatBufferViews",
      "target": 34963
    },
    {
      "buffer": 0,
      "byteLength": 301696,
      "byteOffset": 258936,
      "byteStride": 8,
      "name": "floatBufferViews",
      "target": 34962
    },
    {
      "buffer": 0,
      "byteLength": 452544,
      "byteOffset": 560632,
      "byteStride": 12,
      "name": "floatBufferViews",
      "target": 34962
    },
    {
      "buffer": 0,
      "byteLength": 603392,
      "byteOffset": 1013176,
      "byteStride": 16,
      "name": "floatBufferViews",
      "target": 34962
    }
  ],
  "buffers": [
    {
      "byteLength": 1616568,
      "uri": "scene.bin"
    }
  ],
  "images": [
    {
      "uri": "textures/Material_98_baseColor.png"
    },
    {
      "uri": "textures/Material_98_metallicRoughness.png"
    },
    {
      "uri": "textures/Material_98_normal.png"
    },
    {
      "uri": "textures/Material_99_baseColor.png"
    },
    {
      "uri": "textures/Material_99_normal.png"
    }
  ],
  "materials": [
    {
      "doubleSided": true,
      "name": "Material_98",
      "normalTexture": {
        "index": 2,
        "scale": 1,
        "texCoord": 0
      },
      "occlusionTexture": {
        "index": 1,
        "strength": 1,
        "texCoord": 0
      },
      "pbrMetallicRoughness": {
        "baseColorFactor": [
          1,
          1,
          1,
          1
        ],
        "baseColorTexture": {
          "index": 0,
          "texCoord": 0
        },
        "metallicFactor": 1,
        "metallicRoughnessTexture": {
          "index": 1,
          "texCoord": 0
        },
        "roughnessFactor": 1
      }
    },
    {
      "doubleSided": true,
      "name": "Material_99",
      "normalTexture": {
        "index": 4,
        "scale": 1,
        "texCoord": 0
      },
      "occlusionTexture": {
        "index": 1,
        "strength": 1,
        "texCoord": 0
      },
      "pbrMetallicRoughness": {
        "baseColorFactor": [
          1,
          1,
          1,
          1
        ],
        "baseColorTexture": {
          "index": 3,
          "texCoord": 0
        },
        "metallicFactor": 1,
        "metallicRoughnessTexture": {
          "index": 1,
          "texCoord": 0
        },
        "roughnessFactor": 1
      }
    }
  ],
  "meshes": [
    {
      "name": "Object004_Material #98_0",
      "primitives": [
        {
          "attributes": {
            "COLOR_0": 3,
            "NORMAL": 1,
            "POSITION": 0,
            "TANGENT": 2,
            "TEXCOORD_0": 4,
            "TEXCOORD_1": 5
          },
          "indices": 6,
          "material": 0,
          "mode": 4
        }
      ]
    },
    {
      "name": "Object005_Material #99_0",
      "primitives": [
        {
          "attributes": {
            "COLOR_0": 10,
            "NORMAL": 8,
            "POSITION": 7,
            "TANGENT": 9,
            "TEXCOORD_0": 11,
            "TEXCOORD_1": 12
          },
          "indices": 13,
          "material": 1,
          "mode": 4
        }
      ]
    }
  ],
  "nodes": [
    {
      "children": [
        1
      ],
      "name": "RootNode (gltf orientation matrix)",
      "rotation": [
        -0.70710678118654746,
        -0,
        -0,
        0.70710678118654757
      ]
    },
    {
      "children": [
        2
      ],
      "name": "RootNode (model correction matrix)"
    },
    {
      "children": [
        3
      ],
      "matrix": [
        1,
        0,
        0,
        0,
        0,
        0,
        1,
        0,
        0,
        -1,
        0,
        0,
        0,
        0,
        0,
        1
      ],
      "name": "burnedpolice.FBX"
    },
    {
      "children": [
        4,
        6
      ],
      "name": "RootNode"
    },
    {
      "children": [
        5
      ],
      "matrix": [
        -0.96592588189354345,
        -1.3877787807814457e-16,
        0.25881883758370594,
        0,
        0.25881883758370594,
        -2.2204460492503131e-16,
        0.96592588189354334,
        0,
        -8.3266726846886741e-17,
        1,
        0,
        0,
        0,
        90.845108032226562,
        3.9709657357889228e-06,
        1
      ],
      "name": "Object004"
    },
    {
      "mesh": 0,
      "name": "Object004_Material #98_0"
    },
    {
      "children": [
        7
      ],
      "matrix": [
        -0.99999999999998823,
        1.5099580265055072e-07,
        -1.2246464555384738e-16,
        0,
        3.9080589880407643e-08,
        0.25881904712649251,
        -0.96592582574674579,
        0,
        -1.458507453278297e-07,
        -0.96592582574673469,
        -0.25881904712649506,
        0,
        322.8251953125,
        64.603195190429688,
        -133.06379699707031,
        1
      ],
      "name": "Object005"
    },
    {
      "mesh": 1,
      "name": "Object005_Material #99_0"
    }
  ],
  "samplers": [
    {
      "magFilter": 9729,
      "minFilter": 9987,
      "wrapS": 10497,
      "wrapT": 10497
    }
  ],
  "scene": 0,
  "scenes": [
    {
      "name": "OSG_Scene",
      "nodes": [
        0
      ]
    }
  ],
  "textures": [
    {
      "sampler": 0,
      "source": 0
    },
    {
      "sampler": 0,
      "source": 1
    },
    {
      "sampler": 0,
      "source": 2
    },
    {
      "sampler": 0,
      "source": 3
    },
    {
      "sampler": 0,
      "source": 4
    }
  ]
}

