{
  "accessors": [
    {
      "bufferView": 2,
      "componentType": 5126,
      "count": 44805,
      "max": [
        2.6475481986999512,
        2.9322550296783447,
        1.5048699378967285
      ],
      "min": [
        -2.647641658782959,
        -16.383567810058594,
        -1.1634546518325806
      ],
      "type": "VEC3"
    },
    {
      "bufferView": 2,
      "byteOffset": 537660,
      "componentType": 5126,
      "count": 44805,
      "max": [
        0.99995386600494385,
        0.97932034730911255,
        0.99999189376831055
      ],
      "min": [
        -0.99994015693664551,
        -0.99978411197662354,
        -0.99994838237762451
      ],
      "type": "VEC3"
    },
    {
      "bufferView": 3,
      "componentType": 5126,
      "count": 44805,
      "max": [
        0.99997550249099731,
        0.99991011619567871,
        0.99994474649429321,
        1
      ],
      "min": [
        -0.99998736381530762,
        -0.99994224309921265,
        -0.9999578595161438,
        -1
      ],
      "type": "VEC4"
    },
    {
      "bufferView": 1,
      "componentType": 5126,
      "count": 44805,
      "max": [
        0.99828141927719116,
        0.99828130006790161
      ],
      "min": [
        0.0017186098266392946,
        0.0017186676850542426
      ],
      "type": "VEC2"
    },
    {
      "bufferView": 0,
      "componentType": 5125,
      "count": 116190,
      "max": [
        44804
      ],
      "min": [
        0
      ],
      "type": "SCALAR"
    }
  ],
  "asset": {
    "extras": {
      "author": "Morphin (https://sketchfab.com/morphinometr)",
      "license": "CC-BY-4.0 (http://creativecommons.org/licenses/by/4.0/)",
      "source": "https://sketchfab.com/models/2e211c13614b433ab6191a814364dacd",
      "title": "Squid"
    },
    "generator": "Sketchfab-4.1.3",
    "version": "2.0"
  },
  "bufferViews": [
    {
      "buffer": 0,
      "byteLength": 464760,
      "byteOffset": 0,
      "name": "floatBufferViews",
      "target": 34963
    },
    {
      "buffer": 0,
      "byteLength": 358440,
      "byteOffset": 464760,
      "byteStride": 8,
      "name": "floatBufferViews",
      "target": 34962
    },
    {
      "buffer": 0,
      "byteLength": 1075320,
      "byteOffset": 823200,
      "byteStride": 12,
      "name": "floatBufferViews",
      "target": 34962
    },
    {
      "buffer": 0,
      "byteLength": 716880,
      "byteOffset": 1898520,
      "byteStride": 16,
      "name": "floatBufferViews",
      "target": 34962
    }
  ],
  "buffers": [
    {
      "byteLength": 2615400,
      "uri": "scene.bin"
    }
  ],
  "images": [
    {
      "uri": "textures/Material_normal.png"
    }
  ],
  "materials": [
    {
      "doubleSided": false,
      "emissiveFactor": [
        0,
        0,
        0
      ],
      "name": "Material",
      "normalTexture": {
        "index": 0,
        "scale": 1,
        "texCoord": 0
      },
      "pbrMetallicRoughness": {
        "baseColorFactor": [
          0.69940240549999999,
          0.30210550829999999,
          0.30210550829999999,
          1
        ],
        "metallicFactor": 0,
        "roughnessFactor": 0.31268339339999995
      }
    }
  ],
  "meshes": [
    {
      "name": "Cylinder.001_Material_0",
      "primitives": [
        {
          "attributes": {
            "NORMAL": 1,
            "POSITION": 0,
            "TANGENT": 2,
            "TEXCOORD_0": 3
          },
          "indices": 4,
          "material": 0,
          "mode": 4
        }
      ]
    }
  ],
  "nodes": [
    {
      "children": [
        1
      ],
      "name": "RootNode (gltf orientation matrix)",
      "rotation": [
        -0.70710678118654746,
        -0,
        -0,
        0.70710678118654757
      ]
    },
    {
      "children": [
        2
      ],
      "matrix": [
        0.9999997615814209,
        0,
        0.00067315530031919479,
        0,
        0,
        1,
        0,
        0,
        -0.00067315530031919479,
        0,
        0.9999997615814209,
        0,
        0.011491673067212105,
        -1.104300008591963e-05,
        -5.7545901654521003e-05,
        1
      ],
      "name": "RootNode (model correction matrix)"
    },
    {
      "children": [
        3
      ],
      "matrix": [
        1,
        0,
        0,
        0,
        0,
        0,
        1,
        0,
        0,
        -1,
        0,
        0,
        0,
        0,
        0,
        1
      ],
      "name": "ccb3786c88b341c9a0f2e39b7496c068.fbx"
    },
    {
      "children": [
        4
      ],
      "name": "RootNode"
    },
    {
      "children": [
        5
      ],
      "matrix": [
        100,
        0,
        0,
        0,
        0,
        -1.6292067939183141e-05,
        -99.999999999998678,
        0,
        0,
        99.999999999998678,
        -1.6292067939183141e-05,
        0,
        0,
        0,
        0,
        1
      ],
      "name": "Cylinder.001"
    },
    {
      "mesh": 0,
      "name": "Cylinder.001_Material_0"
    }
  ],
  "samplers": [
    {
      "magFilter": 9729,
      "minFilter": 9987,
      "wrapS": 10497,
      "wrapT": 10497
    }
  ],
  "scene": 0,
  "scenes": [
    {
      "name": "OSG_Scene",
      "nodes": [
        0
      ]
    }
  ],
  "textures": [
    {
      "sampler": 0,
      "source": 0
    }
  ]
}

