{
  "accessors": [
    {
      "bufferView": 2,
      "componentType": 5126,
      "count": 8764,
      "max": [
        1.5640079975128174,
        0.55390000343322754,
        -0.19395500421524048
      ],
      "min": [
        -0.6046450138092041,
        -0.65685099363327026,
        -1.1649889945983887
      ],
      "type": "VEC3"
    },
    {
      "bufferView": 2,
      "byteOffset": 105168,
      "componentType": 5126,
      "count": 8764,
      "max": [
        0.99988538026809692,
        0.99985188245773315,
        0.98928189277648926
      ],
      "min": [
        -0.99857175350189209,
        -0.99947434663772583,
        -0.99953246116638184
      ],
      "type": "VEC3"
    },
    {
      "bufferView": 3,
      "componentType": 5126,
      "count": 8764,
      "max": [
        0.99999123811721802,
        0.99991810321807861,
        0.99998456239700317,
        1
      ],
      "min": [
        -1,
        -0.9999992847442627,
        -0.99997884035110474,
        -1
      ],
      "type": "VEC4"
    },
    {
      "bufferView": 1,
      "componentType": 5126,
      "count": 8764,
      "max": [
        0.97186899185180664,
        0.98178398609161377
      ],
      "min": [
        0.004999999888241291,
        0.004999999888241291
      ],
      "type": "VEC2"
    },
    {
      "bufferView": 0,
      "componentType": 5125,
      "count": 35712,
      "max": [
        8763
      ],
      "min": [
        0
      ],
      "type": "SCALAR"
    },
    {
      "bufferView": 2,
      "byteOffset": 210336,
      "componentType": 5126,
      "count": 6776,
      "max": [
        1.1253509521484375,
        0.53540802001953125,
        -0.77373099327087402
      ],
      "min": [
        -1.1253520250320435,
        -0.76683002710342407,
        -1.1674150228500366
      ],
      "type": "VEC3"
    },
    {
      "bufferView": 2,
      "byteOffset": 291648,
      "componentType": 5126,
      "count": 6776,
      "max": [
        0.99988245964050293,
        0.99996000528335571,
        0.96187287569046021
      ],
      "min": [
        -0.99988210201263428,
        -0.99601298570632935,
        -0.99972385168075562
      ],
      "type": "VEC3"
    },
    {
      "bufferView": 3,
      "byteOffset": 140224,
      "componentType": 5126,
      "count": 6776,
      "max": [
        0.9999854564666748,
        0.99999499320983887,
        0.99998569488525391,
        1
      ],
      "min": [
        -0.99999910593032837,
        -0.99997740983963013,
        -0.99999964237213135,
        -1
      ],
      "type": "VEC4"
    },
    {
      "bufferView": 1,
      "byteOffset": 70112,
      "componentType": 5126,
      "count": 6776,
      "max": [
        0.97632700204849243,
        0.98716497421264648
      ],
      "min": [
        0.004999999888241291,
        0.004999999888241291
      ],
      "type": "VEC2"
    },
    {
      "bufferView": 0,
      "byteOffset": 142848,
      "componentType": 5125,
      "count": 27648,
      "max": [
        6775
      ],
      "min": [
        0
      ],
      "type": "SCALAR"
    },
    {
      "bufferView": 2,
      "byteOffset": 372960,
      "componentType": 5126,
      "count": 9784,
      "max": [
        1.0572969913482666,
        -0.63629299402236938,
        -0.9323279857635498
      ],
      "min": [
        -1.0578000545501709,
        -1.0604850053787231,
        -1.1029529571533203
      ],
      "type": "VEC3"
    },
    {
      "bufferView": 2,
      "byteOffset": 490368,
      "componentType": 5126,
      "count": 9784,
      "max": [
        0.99931585788726807,
        0.94276738166809082,
        0.9999573826789856
      ],
      "min": [
        -0.99906700849533081,
        -0.99826562404632568,
        -0.99986052513122559
      ],
      "type": "VEC3"
    },
    {
      "bufferView": 3,
      "byteOffset": 248640,
      "componentType": 5126,
      "count": 9784,
      "max": [
        0.99991703033447266,
        0.99999165534973145,
        0.99998068809509277,
        1
      ],
      "min": [
        -0.9991951584815979,
        -0.99999970197677612,
        -0.99998968839645386,
        -1
      ],
      "type": "VEC4"
    },
    {
      "bufferView": 1,
      "byteOffset": 124320,
      "componentType": 5126,
      "count": 9784,
      "max": [
        0.98073500394821167,
        0.97548800706863403
      ],
      "min": [
        0.004999999888241291,
        0.004999999888241291
      ],
      "type": "VEC2"
    },
    {
      "bufferView": 0,
      "byteOffset": 253440,
      "componentType": 5125,
      "count": 43008,
      "max": [
        9783
      ],
      "min": [
        0
      ],
      "type": "SCALAR"
    },
    {
      "bufferView": 2,
      "byteOffset": 607776,
      "componentType": 5126,
      "count": 9470,
      "max": [
        0.95838898420333862,
        0.87618798017501831,
        -0.012199000455439091
      ],
      "min": [
        -1.5655970573425293,
        -0.26525500416755676,
        -1.1649899482727051
      ],
      "type": "VEC3"
    },
    {
      "bufferView": 2,
      "byteOffset": 721416,
      "componentType": 5126,
      "count": 9470,
      "max": [
        0.99990648031234741,
        0.9998517632484436,
        0.98928290605545044
      ],
      "min": [
        -0.99957036972045898,
        -0.99984890222549438,
        -0.99953252077102661
      ],
      "type": "VEC3"
    },
    {
      "bufferView": 3,
      "byteOffset": 405184,
      "componentType": 5126,
      "count": 9470,
      "max": [
        0.99999052286148071,
        0.999969482421875,
        0.99999433755874634,
        1
      ],
      "min": [
        -1,
        -0.99999916553497314,
        -0.99997246265411377,
        -1
      ],
      "type": "VEC4"
    },
    {
      "bufferView": 1,
      "byteOffset": 202592,
      "componentType": 5126,
      "count": 9470,
      "max": [
        0.97499001026153564,
        0.97342699766159058
      ],
      "min": [
        0.004999999888241291,
        0.004999999888241291
      ],
      "type": "VEC2"
    },
    {
      "bufferView": 0,
      "byteOffset": 425472,
      "componentType": 5125,
      "count": 38016,
      "max": [
        9469
      ],
      "min": [
        0
      ],
      "type": "SCALAR"
    },
    {
      "bufferView": 2,
      "byteOffset": 835056,
      "componentType": 5126,
      "count": 7869,
      "max": [
        0.68143999576568604,
        1.1395070552825928,
        1.2937099933624268
      ],
      "min": [
        -0.87333101034164429,
        -1.5035250186920166,
        -1.1932590007781982
      ],
      "type": "VEC3"
    },
    {
      "bufferView": 2,
      "byteOffset": 929484,
      "componentType": 5126,
      "count": 7869,
      "max": [
        0.99953323602676392,
        0.99962526559829712,
        0.99991166591644287
      ],
      "min": [
        -0.99933439493179321,
        -0.99944865703582764,
        -0.99987578392028809
      ],
      "type": "VEC3"
    },
    {
      "bufferView": 3,
      "byteOffset": 556704,
      "componentType": 5126,
      "count": 7869,
      "max": [
        0.99999982118606567,
        0.99997258186340332,
        0.99999874830245972,
        1
      ],
      "min": [
        -0.99999988079071045,
        -0.99999958276748657,
        -0.9999995231628418,
        -1
      ],
      "type": "VEC4"
    },
    {
      "bufferView": 1,
      "byteOffset": 278352,
      "componentType": 5126,
      "count": 7869,
      "max": [
        0.96477597951889038,
        0.97114598751068115
      ],
      "min": [
        0.004999999888241291,
        0.004999999888241291
      ],
      "type": "VEC2"
    },
    {
      "bufferView": 0,
      "byteOffset": 577536,
      "componentType": 5125,
      "count": 36480,
      "max": [
        7868
      ],
      "min": [
        0
      ],
      "type": "SCALAR"
    },
    {
      "bufferView": 2,
      "byteOffset": 1023912,
      "componentType": 5126,
      "count": 8332,
      "max": [
        1.2512840032577515,
        1.4738399982452393,
        -0.99169200658798218
      ],
      "min": [
        -1.2502479553222656,
        0.94680601358413696,
        -1.230133056640625
      ],
      "type": "VEC3"
    },
    {
      "bufferView": 2,
      "byteOffset": 1123896,
      "componentType": 5126,
      "count": 8332,
      "max": [
        0.99939054250717163,
        0.99892324209213257,
        0.9917716383934021
      ],
      "min": [
        -0.99993050098419189,
        -0.99922454357147217,
        -0.99987202882766724
      ],
      "type": "VEC3"
    },
    {
      "bufferView": 3,
      "byteOffset": 682608,
      "componentType": 5126,
      "count": 8332,
      "max": [
        0.9999852180480957,
        0.9999924898147583,
        0.99989181756973267,
        1
      ],
      "min": [
        -0.99997073411941528,
        -0.99998229742050171,
        -0.99999499320983887,
        -1
      ],
      "type": "VEC4"
    },
    {
      "bufferView": 1,
      "byteOffset": 341304,
      "componentType": 5126,
      "count": 8332,
      "max": [
        0.9516109824180603,
        0.97314101457595825
      ],
      "min": [
        0.004999999888241291,
        0.004999999888241291
      ],
      "type": "VEC2"
    },
    {
      "bufferView": 0,
      "byteOffset": 723456,
      "componentType": 5125,
      "count": 38400,
      "max": [
        8331
      ],
      "min": [
        0
      ],
      "type": "SCALAR"
    },
    {
      "bufferView": 2,
      "byteOffset": 1223880,
      "componentType": 5126,
      "count": 9427,
      "max": [
        1.627284049987793,
        1.1395070552825928,
        -0.19338400661945343
      ],
      "min": [
        -1.6256179809570312,
        -0.52596801519393921,
        -1.1783499717712402
      ],
      "type": "VEC3"
    },
    {
      "bufferView": 2,
      "byteOffset": 1337004,
      "componentType": 5126,
      "count": 9427,
      "max": [
        0.999991774559021,
        0.99972611665725708,
        0.99284589290618896
      ],
      "min": [
        -0.99935233592987061,
        -0.99987190961837769,
        -0.99987709522247314
      ],
      "type": "VEC3"
    },
    {
      "bufferView": 3,
      "byteOffset": 815920,
      "componentType": 5126,
      "count": 9427,
      "max": [
        1,
        0.99999856948852539,
        0.9999929666519165,
        1
      ],
      "min": [
        -0.99999392032623291,
        -1,
        -0.99999582767486572,
        -1
      ],
      "type": "VEC4"
    },
    {
      "bufferView": 1,
      "byteOffset": 407960,
      "componentType": 5126,
      "count": 9427,
      "max": [
        0.97434598207473755,
        0.97736597061157227
      ],
      "min": [
        0.004999999888241291,
        0.004999999888241291
      ],
      "type": "VEC2"
    },
    {
      "bufferView": 0,
      "byteOffset": 877056,
      "componentType": 5125,
      "count": 45312,
      "max": [
        9426
      ],
      "min": [
        0
      ],
      "type": "SCALAR"
    },
    {
      "bufferView": 2,
      "byteOffset": 1450128,
      "componentType": 5126,
      "count": 7937,
      "max": [
        1.2963370084762573,
        1.0192899703979492,
        -0.22879299521446228
      ],
      "min": [
        -1.2963379621505737,
        -0.47233501076698303,
        -1.1219489574432373
      ],
      "type": "VEC3"
    },
    {
      "bufferView": 2,
      "byteOffset": 1545372,
      "componentType": 5126,
      "count": 7937,
      "max": [
        0.99669289588928223,
        0.99970024824142456,
        0.97580999135971069
      ],
      "min": [
        -0.99903774261474609,
        -0.99991250038146973,
        -0.99980336427688599
      ],
      "type": "VEC3"
    },
    {
      "bufferView": 3,
      "byteOffset": 966752,
      "componentType": 5126,
      "count": 7937,
      "max": [
        0.99999350309371948,
        0.99999862909317017,
        0.99999040365219116,
        1
      ],
      "min": [
        -0.9999997615814209,
        -0.99999958276748657,
        -0.99993520975112915,
        -1
      ],
      "type": "VEC4"
    },
    {
      "bufferView": 1,
      "byteOffset": 483376,
      "componentType": 5126,
      "count": 7937,
      "max": [
        0.98747497797012329,
        0.99500000476837158
      ],
      "min": [
        0.004999999888241291,
        0.004999999888241291
      ],
      "type": "VEC2"
    },
    {
      "bufferView": 0,
      "byteOffset": 1058304,
      "componentType": 5125,
      "count": 34560,
      "max": [
        7936
      ],
      "min": [
        0
      ],
      "type": "SCALAR"
    },
    {
      "bufferView": 2,
      "byteOffset": 1640616,
      "componentType": 5126,
      "count": 6538,
      "max": [
        0.94546699523925781,
        0.53151500225067139,
        -0.37626498937606812
      ],
      "min": [
        -0.95838898420333862,
        -0.26525801420211792,
        -1.0494589805603027
      ],
      "type": "VEC3"
    },
    {
      "bufferView": 2,
      "byteOffset": 1719072,
      "componentType": 5126,
      "count": 6538,
      "max": [
        0.99754512310028076,
        0.99976110458374023,
        0.77316313982009888
      ],
      "min": [
        -0.99730652570724487,
        -0.99983799457550049,
        -0.99992561340332031
      ],
      "type": "VEC3"
    },
    {
      "bufferView": 3,
      "byteOffset": 1093744,
      "componentType": 5126,
      "count": 6538,
      "max": [
        0.99999266862869263,
        0.99999493360519409,
        0.99937212467193604,
        1
      ],
      "min": [
        -0.99999803304672241,
        -0.99859678745269775,
        -0.99998855590820312,
        -1
      ],
      "type": "VEC4"
    },
    {
      "bufferView": 1,
      "byteOffset": 546872,
      "componentType": 5126,
      "count": 6538,
      "max": [
        0.9704509973526001,
        0.97419697046279907
      ],
      "min": [
        0.004999999888241291,
        0.004999999888241291
      ],
      "type": "VEC2"
    },
    {
      "bufferView": 0,
      "byteOffset": 1196544,
      "componentType": 5125,
      "count": 25344,
      "max": [
        6537
      ],
      "min": [
        0
      ],
      "type": "SCALAR"
    }
  ],
  "asset": {
    "extras": {
      "author": "nataliedesign (https://sketchfab.com/nataliedesign)",
      "license": "CC-BY-4.0 (http://creativecommons.org/licenses/by/4.0/)",
      "source": "https://sketchfab.com/3d-models/baby-octopus-8f53709f9f41453ba11961174bcc7569",
      "title": "Baby Octopus"
    },
    "generator": "Sketchfab-7.58.0",
    "version": "2.0"
  },
  "bufferViews": [
    {
      "buffer": 0,
      "byteLength": 1297920,
      "byteOffset": 0,
      "name": "floatBufferViews",
      "target": 34963
    },
    {
      "buffer": 0,
      "byteLength": 599176,
      "byteOffset": 1297920,
      "byteStride": 8,
      "name": "floatBufferViews",
      "target": 34962
    },
    {
      "buffer": 0,
      "byteLength": 1797528,
      "byteOffset": 1897096,
      "byteStride": 12,
      "name": "floatBufferViews",
      "target": 34962
    },
    {
      "buffer": 0,
      "byteLength": 1198352,
      "byteOffset": 3694624,
      "byteStride": 16,
      "name": "floatBufferViews",
      "target": 34962
    }
  ],
  "buffers": [
    {
      "byteLength": 4892976,
      "uri": "scene.bin"
    }
  ],
  "images": [
    {
      "uri": "textures/default_baseColor.jpeg"
    },
    {
      "uri": "textures/default_metallicRoughness.png"
    },
    {
      "uri": "textures/default_normal.jpeg"
    }
  ],
  "materials": [
    {
      "doubleSided": true,
      "name": "default",
      "normalTexture": {
        "index": 2,
        "scale": 1,
        "texCoord": 0
      },
      "pbrMetallicRoughness": {
        "baseColorFactor": [
          0.47122713414634149,
          0.47122713414634149,
          0.47122713414634149,
          1
        ],
        "baseColorTexture": {
          "index": 0,
          "texCoord": 0
        },
        "metallicFactor": 0,
        "metallicRoughnessTexture": {
          "index": 1,
          "texCoord": 0
        },
        "roughnessFactor": 1
      }
    }
  ],
  "meshes": [
    {
      "primitives": [
        {
          "attributes": {
            "NORMAL": 1,
            "POSITION": 0,
            "TANGENT": 2,
            "TEXCOORD_0": 3
          },
          "indices": 4,
          "material": 0,
          "mode": 4
        }
      ]
    },
    {
      "primitives": [
        {
          "attributes": {
            "NORMAL": 6,
            "POSITION": 5,
            "TANGENT": 7,
            "TEXCOORD_0": 8
          },
          "indices": 9,
          "material": 0,
          "mode": 4
        }
      ]
    },
    {
      "primitives": [
        {
          "attributes": {
            "NORMAL": 11,
            "POSITION": 10,
            "TANGENT": 12,
            "TEXCOORD_0": 13
          },
          "indices": 14,
          "material": 0,
          "mode": 4
        }
      ]
    },
    {
      "primitives": [
        {
          "attributes": {
            "NORMAL": 16,
            "POSITION": 15,
            "TANGENT": 17,
            "TEXCOORD_0": 18
          },
          "indices": 19,
          "material": 0,
          "mode": 4
        }
      ]
    },
    {
      "primitives": [
        {
          "attributes": {
            "NORMAL": 21,
            "POSITION": 20,
            "TANGENT": 22,
            "TEXCOORD_0": 23
          },
          "indices": 24,
          "material": 0,
          "mode": 4
        }
      ]
    },
    {
      "primitives": [
        {
          "attributes": {
            "NORMAL": 26,
            "POSITION": 25,
            "TANGENT": 27,
            "TEXCOORD_0": 28
          },
          "indices": 29,
          "material": 0,
          "mode": 4
        }
      ]
    },
    {
      "primitives": [
        {
          "attributes": {
            "NORMAL": 31,
            "POSITION": 30,
            "TANGENT": 32,
            "TEXCOORD_0": 33
          },
          "indices": 34,
          "material": 0,
          "mode": 4
        }
      ]
    },
    {
      "primitives": [
        {
          "attributes": {
            "NORMAL": 36,
            "POSITION": 35,
            "TANGENT": 37,
            "TEXCOORD_0": 38
          },
          "indices": 39,
          "material": 0,
          "mode": 4
        }
      ]
    },
    {
      "primitives": [
        {
          "attributes": {
            "NORMAL": 41,
            "POSITION": 40,
            "TANGENT": 42,
            "TEXCOORD_0": 43
          },
          "indices": 44,
          "material": 0,
          "mode": 4
        }
      ]
    }
  ],
  "nodes": [
    {
      "children": [
        1
      ],
      "name": "RootNode (gltf orientation matrix)",
      "rotation": [
        -0.70710678118654746,
        -0,
        -0,
        0.70710678118654757
      ]
    },
    {
      "children": [
        2
      ],
      "matrix": [
        1,
        0,
        0,
        0,
        0,
        0.99838417768478394,
        0.056825008243322372,
        0,
        0,
        -0.056825008243322372,
        0.99838417768478394,
        0,
        0,
        0.0017825833056122065,
        0.00089478620793670416,
        1
      ],
      "name": "RootNode (model correction matrix)"
    },
    {
      "children": [
        3,
        4,
        5,
        6,
        7,
        8,
        9,
        10,
        11
      ],
      "name": "Baby_Octopusx.OBJ.cleaner.materialmerger.gles"
    },
    {
      "mesh": 0,
      "name": ""
    },
    {
      "mesh": 1,
      "name": ""
    },
    {
      "mesh": 2,
      "name": ""
    },
    {
      "mesh": 3,
      "name": ""
    },
    {
      "mesh": 4,
      "name": ""
    },
    {
      "mesh": 5,
      "name": ""
    },
    {
      "mesh": 6,
      "name": ""
    },
    {
      "mesh": 7,
      "name": ""
    },
    {
      "mesh": 8,
      "name": ""
    }
  ],
  "samplers": [
    {
      "magFilter": 9729,
      "minFilter": 9987,
      "wrapS": 10497,
      "wrapT": 10497
    }
  ],
  "scene": 0,
  "scenes": [
    {
      "name": "OSG_Scene",
      "nodes": [
        0
      ]
    }
  ],
  "textures": [
    {
      "sampler": 0,
      "source": 0
    },
    {
      "sampler": 0,
      "source": 1
    },
    {
      "sampler": 0,
      "source": 2
    }
  ]
}

