{
  "accessors": [
    {
      "bufferView": 2,
      "componentType": 5126,
      "count": 65532,
      "max": [
        24.692754745483398,
        18.440711975097656,
        22.273809432983398
      ],
      "min": [
        0,
        0,
        0
      ],
      "type": "VEC3"
    },
    {
      "bufferView": 2,
      "byteOffset": 786384,
      "componentType": 5126,
      "count": 65532,
      "max": [
        0.99994903802871704,
        0.99999630451202393,
        0.99995017051696777
      ],
      "min": [
        -0.99994814395904541,
        -0.99971646070480347,
        -0.99999827146530151
      ],
      "type": "VEC3"
    },
    {
      "bufferView": 1,
      "componentType": 5126,
      "count": 65532,
      "max": [
        0.99856799840927124,
        0.999534010887146
      ],
      "min": [
        0.00010699999984353781,
        0.003742000088095665
      ],
      "type": "VEC2"
    },
    {
      "bufferView": 0,
      "componentType": 5125,
      "count": 206268,
      "max": [
        65531
      ],
      "min": [
        0
      ],
      "type": "SCALAR"
    },
    {
      "bufferView": 2,
      "byteOffset": 1572768,
      "componentType": 5126,
      "count": 65532,
      "max": [
        24.692754745483398,
        5.3974604606628418,
        22.253501892089844
      ],
      "min": [
        0.64496994018554688,
        0.14680576324462891,
        0.087495803833007812
      ],
      "type": "VEC3"
    },
    {
      "bufferView": 2,
      "byteOffset": 2359152,
      "componentType": 5126,
      "count": 65532,
      "max": [
        0.99995219707489014,
        0.99997586011886597,
        0.99997478723526001
      ],
      "min": [
        -0.99993646144866943,
        -0.99915540218353271,
        -0.99995219707489014
      ],
      "type": "VEC3"
    },
    {
      "bufferView": 1,
      "byteOffset": 524256,
      "componentType": 5126,
      "count": 65532,
      "max": [
        0.99608701467514038,
        0.99996399879455566
      ],
      "min": [
        0.0017930000321939588,
        0.025315999984741211
      ],
      "type": "VEC2"
    },
    {
      "bufferView": 0,
      "byteOffset": 825072,
      "componentType": 5125,
      "count": 177135,
      "max": [
        65531
      ],
      "min": [
        0
      ],
      "type": "SCALAR"
    },
    {
      "bufferView": 2,
      "byteOffset": 3145536,
      "componentType": 5126,
      "count": 65532,
      "max": [
        24.583236694335938,
        5.5731334686279297,
        21.876714706420898
      ],
      "min": [
        3.2932300567626953,
        0.499786376953125,
        0.12376880645751953
      ],
      "type": "VEC3"
    },
    {
      "bufferView": 2,
      "byteOffset": 3931920,
      "componentType": 5126,
      "count": 65532,
      "max": [
        0.99998128414154053,
        0.99999982118606567,
        0.99999761581420898
      ],
      "min": [
        -0.99995541572570801,
        -0.99862051010131836,
        -0.99999439716339111
      ],
      "type": "VEC3"
    },
    {
      "bufferView": 1,
      "byteOffset": 1048512,
      "componentType": 5126,
      "count": 65532,
      "max": [
        0.99742799997329712,
        1.0047630071640015
      ],
      "min": [
        0.0021720000077039003,
        0.018487000837922096
      ],
      "type": "VEC2"
    },
    {
      "bufferView": 0,
      "byteOffset": 1533612,
      "componentType": 5125,
      "count": 163338,
      "max": [
        65531
      ],
      "min": [
        0
      ],
      "type": "SCALAR"
    },
    {
      "bufferView": 2,
      "byteOffset": 4718304,
      "componentType": 5126,
      "count": 65532,
      "max": [
        23.336156845092773,
        7.680699348449707,
        19.855663299560547
      ],
      "min": [
        4.1567411422729492,
        1.4324202537536621,
        3.0064754486083984
      ],
      "type": "VEC3"
    },
    {
      "bufferView": 2,
      "byteOffset": 5504688,
      "componentType": 5126,
      "count": 65532,
      "max": [
        0.99995982646942139,
        0.99995452165603638,
        0.99999761581420898
      ],
      "min": [
        -0.99998760223388672,
        -0.99968957901000977,
        -0.99999439716339111
      ],
      "type": "VEC3"
    },
    {
      "bufferView": 1,
      "byteOffset": 1572768,
      "componentType": 5126,
      "count": 65532,
      "max": [
        0.99827700853347778,
        0.99985301494598389
      ],
      "min": [
        0.00021100000594742596,
        0.019748000428080559
      ],
      "type": "VEC2"
    },
    {
      "bufferView": 0,
      "byteOffset": 2186964,
      "componentType": 5125,
      "count": 205608,
      "max": [
        65531
      ],
      "min": [
        0
      ],
      "type": "SCALAR"
    },
    {
      "bufferView": 2,
      "byteOffset": 6291072,
      "componentType": 5126,
      "count": 65532,
      "max": [
        21.976821899414062,
        8.9607076644897461,
        19.828575134277344
      ],
      "min": [
        3.9105415344238281,
        4.2503623962402344,
        2.7357234954833984
      ],
      "type": "VEC3"
    },
    {
      "bufferView": 2,
      "byteOffset": 7077456,
      "componentType": 5126,
      "count": 65532,
      "max": [
        0.99996960163116455,
        0.99999541044235229,
        0.99997508525848389
      ],
      "min": [
        -0.99996387958526611,
        -0.99999278783798218,
        -0.99999868869781494
      ],
      "type": "VEC3"
    },
    {
      "bufferView": 1,
      "byteOffset": 2097024,
      "componentType": 5126,
      "count": 65532,
      "max": [
        0.9975929856300354,
        0.99978899955749512
      ],
      "min": [
        0.0019940000493079424,
        0.0040159998461604118
      ],
      "type": "VEC2"
    },
    {
      "bufferView": 0,
      "byteOffset": 3009396,
      "componentType": 5125,
      "count": 193923,
      "max": [
        65531
      ],
      "min": [
        0
      ],
      "type": "SCALAR"
    },
    {
      "bufferView": 2,
      "byteOffset": 7863840,
      "componentType": 5126,
      "count": 65534,
      "max": [
        21.394855499267578,
        9.5876712799072266,
        19.552009582519531
      ],
      "min": [
        4.8297982215881348,
        6.881770133972168,
        3.3916277885437012
      ],
      "type": "VEC3"
    },
    {
      "bufferView": 2,
      "byteOffset": 8650248,
      "componentType": 5126,
      "count": 65534,
      "max": [
        0.99995714426040649,
        0.99999451637268066,
        0.99998980760574341
      ],
      "min": [
        -0.99998056888580322,
        -0.99506956338882446,
        -0.99992769956588745
      ],
      "type": "VEC3"
    },
    {
      "bufferView": 1,
      "byteOffset": 2621280,
      "componentType": 5126,
      "count": 65534,
      "max": [
        0.99678200483322144,
        1.000216007232666
      ],
      "min": [
        0.00015199999324977398,
        0.0031469999812543392
      ],
      "type": "VEC2"
    },
    {
      "bufferView": 0,
      "byteOffset": 3785088,
      "componentType": 5125,
      "count": 178479,
      "max": [
        65533
      ],
      "min": [
        0
      ],
      "type": "SCALAR"
    },
    {
      "bufferView": 2,
      "byteOffset": 9436656,
      "componentType": 5126,
      "count": 65532,
      "max": [
        21.45184326171875,
        18.470714569091797,
        17.001459121704102
      ],
      "min": [
        5.8649201393127441,
        7.7097396850585938,
        4.0954499244689941
      ],
      "type": "VEC3"
    },
    {
      "bufferView": 2,
      "byteOffset": 10223040,
      "componentType": 5126,
      "count": 65532,
      "max": [
        0.99999940395355225,
        0.99999278783798218,
        0.99999743700027466
      ],
      "min": [
        -0.99997878074645996,
        -0.99998509883880615,
        -0.99994635581970215
      ],
      "type": "VEC3"
    },
    {
      "bufferView": 1,
      "byteOffset": 3145552,
      "componentType": 5126,
      "count": 65532,
      "max": [
        0.99639898538589478,
        0.99961197376251221
      ],
      "min": [
        0.00033800001256167889,
        0.0035329998936504126
      ],
      "type": "VEC2"
    },
    {
      "bufferView": 0,
      "byteOffset": 4499004,
      "componentType": 5125,
      "count": 233187,
      "max": [
        65531
      ],
      "min": [
        0
      ],
      "type": "SCALAR"
    },
    {
      "bufferView": 2,
      "byteOffset": 11009424,
      "componentType": 5126,
      "count": 6006,
      "max": [
        21.712282180786133,
        18.67669677734375,
        14.570369720458984
      ],
      "min": [
        6.2099685668945312,
        3.4907193183898926,
        2.9906377792358398
      ],
      "type": "VEC3"
    },
    {
      "bufferView": 2,
      "byteOffset": 11081496,
      "componentType": 5126,
      "count": 6006,
      "max": [
        0.99121052026748657,
        0.99858808517456055,
        0.999991774559021
      ],
      "min": [
        -0.99736291170120239,
        -0.99798136949539185,
        -0.9989503026008606
      ],
      "type": "VEC3"
    },
    {
      "bufferView": 1,
      "byteOffset": 3669808,
      "componentType": 5126,
      "count": 6006,
      "max": [
        0.99593502283096313,
        1.0001169443130493
      ],
      "min": [
        0.0019320000428706408,
        0.0037050000391900539
      ],
      "type": "VEC2"
    },
    {
      "bufferView": 0,
      "byteOffset": 5431752,
      "componentType": 5125,
      "count": 11295,
      "max": [
        6005
      ],
      "min": [
        0
      ],
      "type": "SCALAR"
    }
  ],
  "asset": {
    "extras": {
      "author": "noxfcna (https://sketchfab.com/noxfcna)",
      "license": "CC-BY-NC-4.0 (http://creativecommons.org/licenses/by-nc/4.0/)",
      "source": "https://sketchfab.com/3d-models/puit-water-well-dff130e22ec94af8b77359169ef42d01",
      "title": "Puit  ( Water well )"
    },
    "generator": "Sketchfab-7.75.0",
    "version": "2.0"
  },
  "bufferViews": [
    {
      "buffer": 0,
      "byteLength": 5476932,
      "byteOffset": 0,
      "name": "floatBufferViews",
      "target": 34963
    },
    {
      "buffer": 0,
      "byteLength": 3717856,
      "byteOffset": 5476932,
      "byteStride": 8,
      "name": "floatBufferViews",
      "target": 34962
    },
    {
      "buffer": 0,
      "byteLength": 11153568,
      "byteOffset": 9194788,
      "byteStride": 12,
      "name": "floatBufferViews",
      "target": 34962
    }
  ],
  "buffers": [
    {
      "byteLength": 20348356,
      "uri": "scene.bin"
    }
  ],
  "images": [
    {
      "uri": "textures/material_0_baseColor.jpeg"
    }
  ],
  "materials": [
    {
      "doubleSided": true,
      "emissiveFactor": [
        0,
        0,
        0
      ],
      "name": "material_0",
      "pbrMetallicRoughness": {
        "baseColorFactor": [
          1,
          1,
          1,
          1
        ],
        "baseColorTexture": {
          "index": 0,
          "texCoord": 0
        },
        "metallicFactor": 0,
        "roughnessFactor": 0.59999999999999998
      }
    }
  ],
  "meshes": [
    {
      "primitives": [
        {
          "attributes": {
            "NORMAL": 1,
            "POSITION": 0,
            "TEXCOORD_0": 2
          },
          "indices": 3,
          "material": 0,
          "mode": 4
        }
      ]
    },
    {
      "primitives": [
        {
          "attributes": {
            "NORMAL": 5,
            "POSITION": 4,
            "TEXCOORD_0": 6
          },
          "indices": 7,
          "material": 0,
          "mode": 4
        }
      ]
    },
    {
      "primitives": [
        {
          "attributes": {
            "NORMAL": 9,
            "POSITION": 8,
            "TEXCOORD_0": 10
          },
          "indices": 11,
          "material": 0,
          "mode": 4
        }
      ]
    },
    {
      "primitives": [
        {
          "attributes": {
            "NORMAL": 13,
            "POSITION": 12,
            "TEXCOORD_0": 14
          },
          "indices": 15,
          "material": 0,
          "mode": 4
        }
      ]
    },
    {
      "primitives": [
        {
          "attributes": {
            "NORMAL": 17,
            "POSITION": 16,
            "TEXCOORD_0": 18
          },
          "indices": 19,
          "material": 0,
          "mode": 4
        }
      ]
    },
    {
      "primitives": [
        {
          "attributes": {
            "NORMAL": 21,
            "POSITION": 20,
            "TEXCOORD_0": 22
          },
          "indices": 23,
          "material": 0,
          "mode": 4
        }
      ]
    },
    {
      "primitives": [
        {
          "attributes": {
            "NORMAL": 25,
            "POSITION": 24,
            "TEXCOORD_0": 26
          },
          "indices": 27,
          "material": 0,
          "mode": 4
        }
      ]
    },
    {
      "primitives": [
        {
          "attributes": {
            "NORMAL": 29,
            "POSITION": 28,
            "TEXCOORD_0": 30
          },
          "indices": 31,
          "material": 0,
          "mode": 4
        }
      ]
    }
  ],
  "nodes": [
    {
      "children": [
        1
      ],
      "name": "RootNode (gltf orientation matrix)",
      "rotation": [
        -0.70710678118654746,
        -0,
        -0,
        0.70710678118654757
      ]
    },
    {
      "children": [
        2
      ],
      "matrix": [
        0.86943614482879639,
        0.49398866295814514,
        0.0074820728041231632,
        0,
        -0.07562149316072464,
        0.11809971928596497,
        0.99011808633804321,
        0,
        0.48822349309921265,
        -0.86141026020050049,
        0.14003632962703705,
        0,
        3.9351604641524318e-07,
        1.05497576896596e-06,
        -2.1695129817089764e-06,
        1
      ],
      "name": "RootNode (model correction matrix)"
    },
    {
      "children": [
        3,
        4,
        5,
        6,
        7,
        8,
        9,
        10
      ],
      "matrix": [
        1,
        0,
        0,
        0,
        0,
        1,
        0,
        0,
        0,
        0,
        1,
        0,
        -12.346377372741699,
        -9.338348388671875,
        -11.136904716491699,
        1
      ],
      "name": "model.obj.cleaner.gles"
    },
    {
      "mesh": 0,
      "name": ""
    },
    {
      "mesh": 1,
      "name": ""
    },
    {
      "mesh": 2,
      "name": ""
    },
    {
      "mesh": 3,
      "name": ""
    },
    {
      "mesh": 4,
      "name": ""
    },
    {
      "mesh": 5,
      "name": ""
    },
    {
      "mesh": 6,
      "name": ""
    },
    {
      "mesh": 7,
      "name": ""
    }
  ],
  "samplers": [
    {
      "magFilter": 9729,
      "minFilter": 9987,
      "wrapS": 10497,
      "wrapT": 10497
    }
  ],
  "scene": 0,
  "scenes": [
    {
      "name": "OSG_Scene",
      "nodes": [
        0
      ]
    }
  ],
  "textures": [
    {
      "sampler": 0,
      "source": 0
    }
  ]
}

