{
  "accessors": [
    {
      "bufferView": 2,
      "componentType": 5126,
      "count": 4151,
      "max": [
        9.644729614257813,
        12.497916221618652,
        9.618025779724121
      ],
      "min": [
        -7.492896556854248,
        -2.6852633953094482,
        0.07775340229272842
      ],
      "type": "VEC3"
    },
    {
      "bufferView": 2,
      "byteOffset": 49812,
      "componentType": 5126,
      "count": 4151,
      "max": [
        1.0,
        1.0,
        1.0
      ],
      "min": [
        -1.0,
        -1.0,
        -1.0
      ],
      "type": "VEC3"
    },
    {
      "bufferView": 3,
      "componentType": 5126,
      "count": 4151,
      "max": [
        1.0,
        1.0,
        1.0,
        1.0
      ],
      "min": [
        -1.0,
        -1.0,
        -1.0,
        -1.0
      ],
      "type": "VEC4"
    },
    {
      "bufferView": 1,
      "componentType": 5126,
      "count": 4151,
      "max": [
        0.9971734881401062,
        0.9912105202674866
      ],
      "min": [
        0.0041925981640815735,
        0.0035810410045087337
      ],
      "type": "VEC2"
    },
    {
      "bufferView": 0,
      "componentType": 5125,
      "count": 8721,
      "type": "SCALAR"
    },
    {
      "bufferView": 2,
      "byteOffset": 99624,
      "componentType": 5126,
      "count": 2576,
      "max": [
        9.309945106506348,
        11.768134117126465,
        7.507428169250488
      ],
      "min": [
        -7.077800273895264,
        -1.9376636743545532,
        0.01941467821598053
      ],
      "type": "VEC3"
    },
    {
      "bufferView": 2,
      "byteOffset": 130536,
      "componentType": 5126,
      "count": 2576,
      "max": [
        1.0,
        1.0,
        1.0
      ],
      "min": [
        -1.0,
        -1.0,
        -1.0
      ],
      "type": "VEC3"
    },
    {
      "bufferView": 3,
      "byteOffset": 66416,
      "componentType": 5126,
      "count": 2576,
      "max": [
        1.0,
        1.0,
        1.0,
        1.0
      ],
      "min": [
        -1.0,
        -1.0,
        -1.0,
        -1.0
      ],
      "type": "VEC4"
    },
    {
      "bufferView": 1,
      "byteOffset": 33208,
      "componentType": 5126,
      "count": 2576,
      "max": [
        0.9955199956893921,
        0.9878684878349304
      ],
      "min": [
        0.004479795694351196,
        0.004479795694351196
      ],
      "type": "VEC2"
    },
    {
      "bufferView": 0,
      "byteOffset": 34884,
      "componentType": 5125,
      "count": 4104,
      "type": "SCALAR"
    },
    {
      "bufferView": 2,
      "byteOffset": 161448,
      "componentType": 5126,
      "count": 4769,
      "max": [
        10.207877159118652,
        13.171784400939941,
        7.623352527618408
      ],
      "min": [
        -8.922796249389648,
        -3.4521291255950928,
        0.018560048192739487
      ],
      "type": "VEC3"
    },
    {
      "bufferView": 2,
      "byteOffset": 218676,
      "componentType": 5126,
      "count": 4769,
      "max": [
        1.0,
        1.0,
        1.0
      ],
      "min": [
        -1.0,
        -1.0,
        -1.0
      ],
      "type": "VEC3"
    },
    {
      "bufferView": 3,
      "byteOffset": 107632,
      "componentType": 5126,
      "count": 4769,
      "max": [
        1.0,
        1.0,
        1.0,
        1.0
      ],
      "min": [
        -1.0,
        -1.0,
        -1.0,
        -1.0
      ],
      "type": "VEC4"
    },
    {
      "bufferView": 1,
      "byteOffset": 53816,
      "componentType": 5126,
      "count": 4769,
      "max": [
        0.9961241483688354,
        0.9956989288330078
      ],
      "min": [
        0.004300832748413086,
        0.004300832748413086
      ],
      "type": "VEC2"
    },
    {
      "bufferView": 0,
      "byteOffset": 51300,
      "componentType": 5125,
      "count": 14940,
      "type": "SCALAR"
    }
  ],
  "asset": {
    "extras": {
      "author": "Andrej Grave (https://sketchfab.com/andrej.grave)",
      "license": "CC-BY-4.0 (http://creativecommons.org/licenses/by/4.0/)",
      "source": "https://sketchfab.com/3d-models/croft-barn-house-3c4c26894d314c258ebc57862bc6bdb1",
      "title": "Croft Barn House"
    },
    "generator": "Sketchfab-10.72.0",
    "version": "2.0"
  },
  "bufferViews": [
    {
      "buffer": 0,
      "byteLength": 111060,
      "name": "floatBufferViews",
      "target": 34963
    },
    {
      "buffer": 0,
      "byteLength": 91968,
      "byteOffset": 111060,
      "byteStride": 8,
      "name": "floatBufferViews",
      "target": 34962
    },
    {
      "buffer": 0,
      "byteLength": 275904,
      "byteOffset": 203028,
      "byteStride": 12,
      "name": "floatBufferViews",
      "target": 34962
    },
    {
      "buffer": 0,
      "byteLength": 183936,
      "byteOffset": 478932,
      "byteStride": 16,
      "name": "floatBufferViews",
      "target": 34962
    }
  ],
  "buffers": [
    {
      "byteLength": 662868,
      "uri": "scene.bin"
    }
  ],
  "images": [
    {
      "uri": "textures/m_croft_barn_main_baseColor.jpeg"
    },
    {
      "uri": "textures/m_croft_barn_main_metallicRoughness.png"
    },
    {
      "uri": "textures/m_croft_barn_main_normal.png"
    },
    {
      "uri": "textures/m_croft_barn_doors_n_windows_baseColor.jpeg"
    },
    {
      "uri": "textures/m_croft_barn_doors_n_windows_metallicRoughness.png"
    },
    {
      "uri": "textures/m_croft_barn_doors_n_windows_normal.png"
    },
    {
      "uri": "textures/m_croft_barn_details_baseColor.jpeg"
    },
    {
      "uri": "textures/m_croft_barn_details_metallicRoughness.png"
    },
    {
      "uri": "textures/m_croft_barn_details_normal.png"
    }
  ],
  "materials": [
    {
      "doubleSided": true,
      "name": "m_croft_barn_main",
      "normalTexture": {
        "index": 2,
        "scale": 0.6738183765182207
      },
      "occlusionTexture": {
        "index": 1
      },
      "pbrMetallicRoughness": {
        "baseColorTexture": {
          "index": 0
        },
        "metallicRoughnessTexture": {
          "index": 1
        }
      }
    },
    {
      "doubleSided": true,
      "name": "m_croft_barn_doors_n_windows",
      "normalTexture": {
        "index": 5
      },
      "occlusionTexture": {
        "index": 4
      },
      "pbrMetallicRoughness": {
        "baseColorTexture": {
          "index": 3
        },
        "metallicRoughnessTexture": {
          "index": 4
        }
      }
    },
    {
      "doubleSided": true,
      "name": "m_croft_barn_details",
      "normalTexture": {
        "index": 8
      },
      "occlusionTexture": {
        "index": 7
      },
      "pbrMetallicRoughness": {
        "baseColorTexture": {
          "index": 6
        },
        "metallicRoughnessTexture": {
          "index": 7
        }
      }
    }
  ],
  "meshes": [
    {
      "name": "croft_barn_house_m_croft_barn_main_0",
      "primitives": [
        {
          "attributes": {
            "NORMAL": 1,
            "POSITION": 0,
            "TANGENT": 2,
            "TEXCOORD_0": 3
          },
          "indices": 4,
          "material": 0,
          "mode": 4
        }
      ]
    },
    {
      "name": "croft_barn_house_m_croft_barn_doors_n_windows_0",
      "primitives": [
        {
          "attributes": {
            "NORMAL": 6,
            "POSITION": 5,
            "TANGENT": 7,
            "TEXCOORD_0": 8
          },
          "indices": 9,
          "material": 1,
          "mode": 4
        }
      ]
    },
    {
      "name": "croft_barn_house_m_croft_barn_details_0",
      "primitives": [
        {
          "attributes": {
            "NORMAL": 11,
            "POSITION": 10,
            "TANGENT": 12,
            "TEXCOORD_0": 13
          },
          "indices": 14,
          "material": 2,
          "mode": 4
        }
      ]
    }
  ],
  "nodes": [
    {
      "children": [
        1
      ],
      "matrix": [
        1.0,
        0.0,
        0.0,
        0.0,
        0.0,
        2.220446049250313e-16,
        -1.0,
        0.0,
        0.0,
        1.0,
        2.220446049250313e-16,
        0.0,
        0.0,
        0.0,
        0.0,
        1.0
      ],
      "name": "Sketchfab_model"
    },
    {
      "children": [
        2
      ],
      "matrix": [
        1.0,
        0.0,
        0.0,
        0.0,
        0.0,
        0.0,
        1.0,
        0.0,
        0.0,
        -1.0,
        0.0,
        0.0,
        0.0,
        0.0,
        0.0,
        1.0
      ],
      "name": "croft_barn_house_final.fbx"
    },
    {
      "children": [
        3
      ],
      "name": "RootNode"
    },
    {
      "children": [
        4,
        5,
        6
      ],
      "matrix": [
        100.0,
        0.0,
        0.0,
        0.0,
        0.0,
        -1.629206793918314e-05,
        -99.99999999999868,
        0.0,
        0.0,
        99.99999999999868,
        -1.629206793918314e-05,
        0.0,
        0.0,
        0.0,
        0.0,
        1.0
      ],
      "name": "croft_barn_house"
    },
    {
      "mesh": 0,
      "name": "croft_barn_house_m_croft_barn_main_0"
    },
    {
      "mesh": 1,
      "name": "croft_barn_house_m_croft_barn_doors_n_windows_0"
    },
    {
      "mesh": 2,
      "name": "croft_barn_house_m_croft_barn_details_0"
    }
  ],
  "samplers": [
    {
      "magFilter": 9729,
      "minFilter": 9987,
      "wrapS": 10497,
      "wrapT": 10497
    }
  ],
  "scene": 0,
  "scenes": [
    {
      "name": "Sketchfab_Scene",
      "nodes": [
        0
      ]
    }
  ],
  "textures": [
    {
      "sampler": 0,
      "source": 0
    },
    {
      "sampler": 0,
      "source": 1
    },
    {
      "sampler": 0,
      "source": 2
    },
    {
      "sampler": 0,
      "source": 3
    },
    {
      "sampler": 0,
      "source": 4
    },
    {
      "sampler": 0,
      "source": 5
    },
    {
      "sampler": 0,
      "source": 6
    },
    {
      "sampler": 0,
      "source": 7
    },
    {
      "sampler": 0,
      "source": 8
    }
  ]
}
